<?xml version="1.0" encoding="utf-8"?>
<svg version="1.1" id="Layer_1" x="0px" y="0px" width="69.988px" height="98.186px" viewBox="0 0 71.283 100" enable-background="new -1103.321 1189.308 69.988 98.186" xmlns="http://www.w3.org/2000/svg">
  <path d="M 52.457 72.123 C 52.457 76.032 51.839 79.702 50.605 83.13 C 49.371 86.49 47.622 89.439 45.36 91.976 C 43.097 94.445 40.354 96.401 37.132 97.84 C 33.908 99.28 30.274 100 26.228 100 C 22.594 100 19.165 99.348 15.942 98.046 C 12.787 96.674 10.011 94.823 7.61 92.492 C 5.279 90.161 3.427 87.418 2.055 84.263 C 0.683 81.04 -0.002 77.611 -0.002 73.976 C -0.002 70.478 0.683 67.153 2.055 63.998 C 3.427 60.845 5.279 58.067 7.61 55.667 C 9.941 53.266 12.684 51.381 15.838 50.009 C 18.994 48.569 22.319 47.85 25.816 47.85 C 26.639 47.85 27.462 47.884 28.285 47.952 C 29.108 48.021 29.931 48.124 30.754 48.261 L 30.754 68.834 C 29.382 67.668 27.84 67.085 26.125 67.085 C 24.137 67.085 22.456 67.805 21.086 69.244 C 19.714 70.684 19.027 72.398 19.027 74.387 C 19.027 76.445 19.782 78.159 21.29 79.531 C 22.799 80.832 24.547 81.485 26.536 81.485 C 27.977 81.485 29.143 81.21 30.034 80.661 C 30.993 80.045 31.713 79.256 32.194 78.296 C 32.742 77.336 33.119 76.274 33.325 75.107 C 33.53 73.873 33.634 72.639 33.634 71.404 L 33.633 26.749 L 14.811 45.197 L 14.811 22.137 L 37.398 -0.001 L 48.693 -0.001 L 71.281 22.137 L 71.281 45.197 L 52.459 26.749 L 52.459 72.123 Z" style=""/>
</svg>