<?xml version="1.0" encoding="utf-8"?>
<svg version="1.1" id="Layer_1" x="0px" y="0px" width="69.988px" height="98.186px" viewBox="0 0 130 130" enable-background="new -1103.321 1189.308 69.988 98.186" xmlns="http://www.w3.org/2000/svg">
  <rect width="130" height="130" style=""/>
  <path d="M 81.809 87.124 C 81.809 91.033 81.191 94.703 79.957 98.131 C 78.723 101.491 76.974 104.44 74.712 106.977 C 72.449 109.446 69.706 111.402 66.484 112.841 C 63.26 114.281 59.626 115.001 55.58 115.001 C 51.946 115.001 48.517 114.349 45.294 113.047 C 42.139 111.675 39.363 109.824 36.962 107.493 C 34.631 105.162 32.779 102.419 31.407 99.264 C 30.035 96.041 29.35 92.612 29.35 88.977 C 29.35 85.479 30.035 82.154 31.407 78.999 C 32.779 75.846 34.631 73.068 36.962 70.668 C 39.293 68.267 42.036 66.382 45.19 65.01 C 48.346 63.57 51.671 62.851 55.168 62.851 C 55.991 62.851 56.814 62.885 57.637 62.953 C 58.46 63.022 59.283 63.125 60.106 63.262 L 60.106 83.835 C 58.734 82.669 57.192 82.086 55.477 82.086 C 53.489 82.086 51.808 82.806 50.438 84.245 C 49.066 85.685 48.379 87.399 48.379 89.388 C 48.379 91.446 49.134 93.16 50.642 94.532 C 52.151 95.833 53.899 96.486 55.888 96.486 C 57.329 96.486 58.495 96.211 59.386 95.662 C 60.345 95.046 61.065 94.257 61.546 93.297 C 62.094 92.337 62.471 91.275 62.677 90.108 C 62.882 88.874 62.986 87.64 62.986 86.405 L 62.985 41.75 L 44.163 60.198 L 44.163 37.138 L 66.75 15 L 78.045 15 L 100.633 37.138 L 100.633 60.198 L 81.811 41.75 L 81.811 87.124 Z" style="fill: rgb(255, 255, 255);"/>
</svg>