<?xml version="1.0" encoding="utf-8"?>
<!-- Generator: Adobe Illustrator 14.0.0, SVG Export Plug-In . SVG Version: 6.00 Build 43363)  -->
<!DOCTYPE svg PUBLIC "-//W3C//DTD SVG 1.1//EN" "http://www.w3.org/Graphics/SVG/1.1/DTD/svg11.dtd">
<svg version="1.1" id="Layer_1" xmlns="http://www.w3.org/2000/svg" xmlns:xlink="http://www.w3.org/1999/xlink" x="0px" y="0px"
	 width="335.146px" height="98.186px" viewBox="3 0 335.146 98.186" enable-background="new 3 0 335.146 98.186"
	 xml:space="preserve">
<path d="M31.985,97.175V29.813h19.997v67.362H31.985z M22.997,71.726v25.449H3V29.813h19.997V53.95h5.555v17.775H22.997z"/>
<path d="M106.662,72.735c0,3.568-0.707,6.9-2.12,9.998c-1.347,3.029-3.198,5.723-5.555,8.08c-2.29,2.289-5.017,4.106-8.181,5.453
	c-3.098,1.279-6.396,1.919-9.897,1.919c-3.568,0-6.935-0.673-10.1-2.021c-3.097-1.346-5.824-3.164-8.181-5.453
	c-2.356-2.356-4.241-5.084-5.655-8.18c-1.347-3.098-2.02-6.431-2.02-9.999c0-3.636,0.673-7.003,2.02-10.1
	c1.414-3.165,3.299-5.857,5.655-8.079c2.356-2.289,5.117-4.074,8.282-5.353c3.231-1.347,6.632-2.02,10.2-2.02
	s6.901,0.673,9.998,2.02c3.098,1.347,5.79,3.199,8.079,5.554c2.357,2.357,4.175,5.117,5.454,8.282
	C105.989,65.935,106.662,69.233,106.662,72.735z M87.978,72.634c0-1.952-0.673-3.669-2.02-5.15c-1.347-1.549-3.03-2.322-5.05-2.322
	s-3.737,0.74-5.15,2.221c-1.347,1.414-2.021,3.131-2.021,5.151c0,1.952,0.674,3.703,2.021,5.251c1.347,1.482,3.029,2.223,5.05,2.223
	c2.02,0,3.702-0.74,5.049-2.223C87.271,76.304,87.978,74.587,87.978,72.634z"/>
<path d="M161.104,72.735c0,3.568-0.707,6.9-2.121,9.998c-1.346,3.029-3.197,5.723-5.555,8.08c-2.289,2.289-5.016,4.106-8.18,5.453
	c-3.098,1.279-6.396,1.919-9.897,1.919c-3.568,0-6.936-0.673-10.1-2.021c-3.098-1.346-5.824-3.164-8.181-5.453
	c-2.356-2.356-4.241-5.084-5.655-8.18c-1.347-3.098-2.021-6.431-2.021-9.999c0-3.636,0.674-7.003,2.021-10.1
	c1.414-3.165,3.299-5.857,5.655-8.079c2.356-2.289,5.117-4.074,8.281-5.353c3.232-1.347,6.632-2.02,10.201-2.02
	c3.568,0,6.9,0.673,9.998,2.02c3.097,1.347,5.79,3.199,8.079,5.554c2.356,2.357,4.175,5.117,5.454,8.282
	C160.431,65.935,161.104,69.233,161.104,72.735z M142.421,72.634c0-1.952-0.674-3.669-2.02-5.15c-1.347-1.549-3.03-2.322-5.05-2.322
	c-2.021,0-3.737,0.74-5.151,2.221c-1.346,1.414-2.02,3.131-2.02,5.151c0,1.952,0.674,3.703,2.02,5.251
	c1.347,1.482,3.03,2.223,5.05,2.223c2.021,0,3.703-0.74,5.05-2.223C141.714,76.304,142.421,74.587,142.421,72.634z"/>
<path d="M195.559,97.175L184.047,65.06l8.383-17.068h19.188l-9.09,17.876l13.433,31.307H195.559z M164.858,97.175V29.813h18.481
	v67.362H164.858z"/>
<path d="M264.612,71.927c0,0.606-0.033,1.213-0.101,1.818c0,0.605-0.034,1.212-0.102,1.818h-27.975
	c-0.472-1.213-0.707-2.559-0.707-4.041c0-1.548,0.303-3.131,0.909-4.746h9.392c-0.269-1.615-0.942-2.929-2.02-3.939
	c-1.077-1.01-2.457-1.514-4.141-1.514c-1.414,0-2.626,0.336-3.636,1.01c-0.942,0.605-1.717,1.414-2.323,2.424
	c-0.605,1.01-1.077,2.154-1.414,3.434c-0.269,1.212-0.403,2.424-0.403,3.636s0.135,2.458,0.403,3.737
	c0.27,1.211,0.707,2.355,1.313,3.434c0.605,1.01,1.38,1.852,2.322,2.524c1.011,0.673,2.223,1.011,3.637,1.011
	c1.145,0,2.12-0.236,2.929-0.707c0.808-0.539,1.582-1.213,2.322-2.021l10.504,12.624c-2.626,1.953-5.185,3.4-7.676,4.343
	c-2.424,0.942-5.285,1.414-8.585,1.414c-3.636,0-7.035-0.64-10.2-1.919c-3.164-1.279-5.925-3.063-8.281-5.353
	c-2.289-2.29-4.107-4.982-5.454-8.079c-1.346-3.165-2.02-6.599-2.02-10.302c0-3.636,0.674-7.003,2.02-10.1
	c1.347-3.097,3.198-5.79,5.555-8.079c2.357-2.289,5.117-4.074,8.282-5.353c3.164-1.347,6.53-2.02,10.099-2.02
	c3.502,0,6.801,0.64,9.897,1.918c3.098,1.279,5.791,3.03,8.08,5.252s4.073,4.882,5.353,7.979
	C263.939,65.161,264.612,68.427,264.612,71.927z"/>
<path d="M319.665,70.815c0,3.838-0.606,7.441-1.818,10.807c-1.212,3.299-2.929,6.195-5.15,8.686
	c-2.222,2.424-4.915,4.344-8.079,5.757c-3.165,1.414-6.733,2.121-10.706,2.121c-3.568,0-6.935-0.64-10.099-1.919
	c-3.098-1.347-5.824-3.164-8.181-5.453c-2.289-2.289-4.107-4.982-5.454-8.08c-1.347-3.164-2.02-6.531-2.02-10.1
	c0-3.434,0.673-6.699,2.02-9.797c1.347-3.096,3.165-5.823,5.454-8.18s4.982-4.208,8.079-5.555c3.098-1.414,6.363-2.121,9.797-2.121
	c0.808,0,1.616,0.033,2.424,0.101s1.616,0.168,2.424,0.303v20.199c-1.347-1.145-2.861-1.717-4.545-1.717
	c-1.952,0-3.602,0.707-4.948,2.12c-1.347,1.414-2.021,3.097-2.021,5.05c0,2.02,0.741,3.703,2.222,5.05
	c1.481,1.278,3.198,1.919,5.151,1.919c1.414,0,2.559-0.27,3.434-0.809c0.942-0.605,1.649-1.38,2.121-2.322
	c0.538-0.943,0.908-1.986,1.11-3.131c0.202-1.212,0.304-2.424,0.304-3.636l-0.001-43.845l-18.481,18.113V21.736L304.879,0h11.09
	l22.178,21.736v22.642l-18.481-18.113V70.815z"/>
</svg>
