<?xml version="1.0" encoding="utf-8"?>
<svg version="1.1" id="Layer_1" x="0px" y="0px" width="335.146px" height="98.186px" viewBox="0 0 341.242 100" enable-background="new 3 0 335.146 98.186" xmlns="http://www.w3.org/2000/svg">
  <path d="M 29.512 98.942 L 29.512 30.355 L 49.873 30.355 L 49.873 98.942 L 29.512 98.942 Z M 20.361 73.03 L 20.361 98.942 L 0 98.942 L 0 30.355 L 20.361 30.355 L 20.361 54.931 L 26.017 54.931 L 26.017 73.029 L 20.361 73.029 Z" style=""/>
  <path d="M 105.547 74.058 C 105.547 77.691 104.827 81.083 103.389 84.238 C 102.017 87.322 100.132 90.065 97.733 92.465 C 95.401 94.795 92.624 96.645 89.403 98.017 C 86.249 99.319 82.891 99.971 79.326 99.971 C 75.693 99.971 72.265 99.285 69.042 97.913 C 65.889 96.542 63.112 94.691 60.712 92.361 C 58.314 89.962 56.394 87.184 54.955 84.032 C 53.583 80.878 52.898 77.484 52.898 73.851 C 52.898 70.149 53.583 66.721 54.955 63.567 C 56.394 60.345 58.314 57.604 60.712 55.341 C 63.111 53.011 65.922 51.193 69.145 49.891 C 72.435 48.52 75.898 47.834 79.531 47.834 C 83.163 47.834 86.557 48.52 89.71 49.891 C 92.865 51.263 95.606 53.148 97.936 55.546 C 100.336 57.946 102.187 60.756 103.489 63.979 C 104.862 67.134 105.547 70.492 105.547 74.058 Z M 86.523 73.955 C 86.523 71.967 85.838 70.219 84.467 68.711 C 83.095 67.134 81.382 66.347 79.325 66.347 C 77.268 66.347 75.52 67.1 74.081 68.608 C 72.71 70.048 72.023 71.796 72.023 73.853 C 72.023 75.841 72.71 77.623 74.081 79.2 C 75.453 80.709 77.165 81.463 79.223 81.463 C 81.28 81.463 82.992 80.71 84.364 79.2 C 85.804 77.692 86.523 75.943 86.523 73.955 Z" style=""/>
  <path d="M 160.979 74.058 C 160.979 77.691 160.259 81.083 158.82 84.238 C 157.449 87.322 155.565 90.065 153.164 92.465 C 150.833 94.795 148.056 96.645 144.835 98.017 C 141.681 99.319 138.323 99.971 134.758 99.971 C 131.125 99.971 127.696 99.285 124.474 97.913 C 121.32 96.542 118.544 94.691 116.144 92.361 C 113.746 89.962 111.826 87.184 110.387 84.032 C 109.015 80.878 108.329 77.484 108.329 73.851 C 108.329 70.149 109.015 66.721 110.387 63.567 C 111.826 60.345 113.746 57.604 116.144 55.341 C 118.543 53.011 121.355 51.193 124.576 49.891 C 127.867 48.52 131.329 47.834 134.963 47.834 C 138.595 47.834 141.988 48.52 145.142 49.891 C 148.296 51.263 151.038 53.148 153.368 55.546 C 155.767 57.946 157.619 60.756 158.922 63.979 C 160.294 67.134 160.979 70.492 160.979 74.058 Z M 141.957 73.955 C 141.957 71.967 141.27 70.219 139.9 68.711 C 138.528 67.134 136.815 66.347 134.758 66.347 C 132.7 66.347 130.953 67.1 129.513 68.608 C 128.143 70.048 127.457 71.796 127.457 73.853 C 127.457 75.841 128.143 77.623 129.513 79.2 C 130.885 80.709 132.598 81.463 134.655 81.463 C 136.713 81.463 138.425 80.71 139.797 79.2 C 141.237 77.692 141.957 75.943 141.957 73.955 Z" style=""/>
  <path d="M 196.061 98.942 L 184.34 66.243 L 192.875 48.865 L 212.412 48.865 L 203.157 67.066 L 216.834 98.942 L 196.061 98.942 Z M 164.802 98.942 L 164.802 30.355 L 183.619 30.355 L 183.619 98.942 L 164.802 98.942 Z" style=""/>
  <path d="M 266.37 73.235 C 266.37 73.852 266.336 74.47 266.267 75.086 C 266.267 75.702 266.232 76.32 266.163 76.937 L 237.679 76.937 C 237.199 75.702 236.959 74.332 236.959 72.823 C 236.959 71.247 237.268 69.635 237.885 67.99 L 247.448 67.99 C 247.174 66.346 246.489 65.008 245.391 63.98 C 244.294 62.951 242.889 62.438 241.175 62.438 C 239.735 62.438 238.501 62.78 237.473 63.467 C 236.513 64.083 235.724 64.906 235.107 65.935 C 234.491 66.963 234.011 68.128 233.668 69.431 C 233.394 70.665 233.257 71.899 233.257 73.133 C 233.257 74.367 233.395 75.636 233.668 76.938 C 233.943 78.171 234.387 79.336 235.004 80.435 C 235.62 81.463 236.41 82.32 237.369 83.005 C 238.398 83.69 239.632 84.034 241.072 84.034 C 242.238 84.034 243.23 83.794 244.054 83.314 C 244.877 82.765 245.665 82.079 246.418 81.256 L 257.113 94.11 C 254.44 96.098 251.834 97.572 249.298 98.532 C 246.83 99.491 243.917 99.972 240.557 99.972 C 236.855 99.972 233.394 99.32 230.171 98.018 C 226.95 96.715 224.138 94.899 221.74 92.567 C 219.409 90.236 217.558 87.495 216.186 84.341 C 214.816 81.119 214.13 77.622 214.13 73.852 C 214.13 70.15 214.816 66.722 216.186 63.568 C 217.558 60.415 219.443 57.673 221.842 55.342 C 224.242 53.012 227.052 51.194 230.275 49.892 C 233.497 48.521 236.924 47.835 240.558 47.835 C 244.123 47.835 247.482 48.487 250.635 49.788 C 253.789 51.091 256.531 52.873 258.862 55.136 C 261.192 57.398 263.009 60.107 264.312 63.26 C 265.684 66.346 266.37 69.671 266.37 73.235 Z" style=""/>
  <path d="M 322.424 72.103 C 322.424 76.011 321.807 79.679 320.573 83.106 C 319.339 86.465 317.591 89.414 315.329 91.95 C 313.067 94.418 310.325 96.373 307.103 97.812 C 303.881 99.252 300.248 99.972 296.203 99.972 C 292.57 99.972 289.141 99.32 285.92 98.018 C 282.766 96.646 279.99 94.796 277.59 92.466 C 275.259 90.135 273.408 87.393 272.037 84.239 C 270.665 81.017 269.98 77.589 269.98 73.955 C 269.98 70.458 270.665 67.134 272.037 63.98 C 273.408 60.827 275.259 58.051 277.59 55.651 C 279.921 53.251 282.663 51.366 285.816 49.995 C 288.97 48.555 292.295 47.835 295.791 47.835 C 296.614 47.835 297.437 47.869 298.259 47.938 C 299.082 48.007 299.905 48.109 300.727 48.247 L 300.727 68.813 C 299.356 67.647 297.814 67.065 296.1 67.065 C 294.112 67.065 292.432 67.785 291.062 69.223 C 289.69 70.663 289.004 72.377 289.004 74.365 C 289.004 76.422 289.758 78.136 291.266 79.507 C 292.774 80.808 294.523 81.461 296.511 81.461 C 297.951 81.461 299.117 81.186 300.008 80.637 C 300.967 80.021 301.687 79.232 302.167 78.273 C 302.715 77.313 303.092 76.251 303.297 75.085 C 303.503 73.851 303.607 72.617 303.607 71.383 L 303.606 26.741 L 284.789 45.183 L 284.789 22.131 L 307.369 0 L 318.661 0 L 341.242 22.131 L 341.242 45.185 L 322.425 26.743 L 322.425 72.103 Z" style=""/>
</svg>