<?xml version="1.0" encoding="utf-8"?>
<svg version="1.1" id="Layer_1" x="0px" y="0px" width="335.146px" height="98.186px" viewBox="0 0 426.2 150" enable-background="new 3 0 335.146 98.186" xmlns="http://www.w3.org/2000/svg">
  <rect width="426.242" height="150" style=""/>
  <path d="M 74.512 113.942 L 74.512 45.355 L 94.873 45.355 L 94.873 113.942 L 74.512 113.942 Z M 65.361 88.03 L 65.361 113.942 L 45 113.942 L 45 45.355 L 65.361 45.355 L 65.361 69.931 L 71.017 69.931 L 71.017 88.029 L 65.361 88.029 Z" style="fill: rgb(255, 255, 255);"/>
  <path d="M 150.547 89.058 C 150.547 92.691 149.827 96.083 148.389 99.238 C 147.017 102.322 145.132 105.065 142.733 107.465 C 140.401 109.795 137.624 111.645 134.403 113.017 C 131.249 114.319 127.891 114.971 124.326 114.971 C 120.693 114.971 117.265 114.285 114.042 112.913 C 110.889 111.542 108.112 109.691 105.712 107.361 C 103.314 104.962 101.394 102.184 99.955 99.032 C 98.583 95.878 97.898 92.484 97.898 88.851 C 97.898 85.149 98.583 81.721 99.955 78.567 C 101.394 75.345 103.314 72.604 105.712 70.341 C 108.111 68.011 110.922 66.193 114.145 64.891 C 117.435 63.52 120.898 62.834 124.531 62.834 C 128.163 62.834 131.557 63.52 134.71 64.891 C 137.865 66.263 140.606 68.148 142.936 70.546 C 145.336 72.946 147.187 75.756 148.489 78.979 C 149.862 82.134 150.547 85.492 150.547 89.058 Z M 131.523 88.955 C 131.523 86.967 130.838 85.219 129.467 83.711 C 128.095 82.134 126.382 81.347 124.325 81.347 C 122.268 81.347 120.52 82.1 119.081 83.608 C 117.71 85.048 117.023 86.796 117.023 88.853 C 117.023 90.841 117.71 92.623 119.081 94.2 C 120.453 95.709 122.165 96.463 124.223 96.463 C 126.28 96.463 127.992 95.71 129.364 94.2 C 130.804 92.692 131.523 90.943 131.523 88.955 Z" style="fill: rgb(255, 255, 255);"/>
  <path d="M 205.979 89.058 C 205.979 92.691 205.259 96.083 203.82 99.238 C 202.449 102.322 200.565 105.065 198.164 107.465 C 195.833 109.795 193.056 111.645 189.835 113.017 C 186.681 114.319 183.323 114.971 179.758 114.971 C 176.125 114.971 172.696 114.285 169.474 112.913 C 166.32 111.542 163.544 109.691 161.144 107.361 C 158.746 104.962 156.826 102.184 155.387 99.032 C 154.015 95.878 153.329 92.484 153.329 88.851 C 153.329 85.149 154.015 81.721 155.387 78.567 C 156.826 75.345 158.746 72.604 161.144 70.341 C 163.543 68.011 166.355 66.193 169.576 64.891 C 172.867 63.52 176.329 62.834 179.963 62.834 C 183.595 62.834 186.988 63.52 190.142 64.891 C 193.296 66.263 196.038 68.148 198.368 70.546 C 200.767 72.946 202.619 75.756 203.922 78.979 C 205.294 82.134 205.979 85.492 205.979 89.058 Z M 186.957 88.955 C 186.957 86.967 186.27 85.219 184.9 83.711 C 183.528 82.134 181.815 81.347 179.758 81.347 C 177.7 81.347 175.953 82.1 174.513 83.608 C 173.143 85.048 172.457 86.796 172.457 88.853 C 172.457 90.841 173.143 92.623 174.513 94.2 C 175.885 95.709 177.598 96.463 179.655 96.463 C 181.713 96.463 183.425 95.71 184.797 94.2 C 186.237 92.692 186.957 90.943 186.957 88.955 Z" style="fill: rgb(255, 255, 255);"/>
  <path d="M 241.061 113.942 L 229.34 81.243 L 237.875 63.865 L 257.412 63.865 L 248.157 82.066 L 261.834 113.942 L 241.061 113.942 Z M 209.802 113.942 L 209.802 45.355 L 228.619 45.355 L 228.619 113.942 L 209.802 113.942 Z" style="fill: rgb(255, 255, 255);"/>
  <path d="M 311.37 88.235 C 311.37 88.852 311.336 89.47 311.267 90.086 C 311.267 90.702 311.232 91.32 311.163 91.937 L 282.679 91.937 C 282.199 90.702 281.959 89.332 281.959 87.823 C 281.959 86.247 282.268 84.635 282.885 82.99 L 292.448 82.99 C 292.174 81.346 291.489 80.008 290.391 78.98 C 289.294 77.951 287.889 77.438 286.175 77.438 C 284.735 77.438 283.501 77.78 282.473 78.467 C 281.513 79.083 280.724 79.906 280.107 80.935 C 279.491 81.963 279.011 83.128 278.668 84.431 C 278.394 85.665 278.257 86.899 278.257 88.133 C 278.257 89.367 278.395 90.636 278.668 91.938 C 278.943 93.171 279.387 94.336 280.004 95.435 C 280.62 96.463 281.41 97.32 282.369 98.005 C 283.398 98.69 284.632 99.034 286.072 99.034 C 287.238 99.034 288.23 98.794 289.054 98.314 C 289.877 97.765 290.665 97.079 291.418 96.256 L 302.113 109.11 C 299.44 111.098 296.834 112.572 294.298 113.532 C 291.83 114.491 288.917 114.972 285.557 114.972 C 281.855 114.972 278.394 114.32 275.171 113.018 C 271.95 111.715 269.138 109.899 266.74 107.567 C 264.409 105.236 262.558 102.495 261.186 99.341 C 259.816 96.119 259.13 92.622 259.13 88.852 C 259.13 85.15 259.816 81.722 261.186 78.568 C 262.558 75.415 264.443 72.673 266.842 70.342 C 269.242 68.012 272.052 66.194 275.275 64.892 C 278.497 63.521 281.924 62.835 285.558 62.835 C 289.123 62.835 292.482 63.487 295.635 64.788 C 298.789 66.091 301.531 67.873 303.862 70.136 C 306.192 72.398 308.009 75.107 309.312 78.26 C 310.684 81.346 311.37 84.671 311.37 88.235 Z" style="fill: rgb(255, 255, 255);"/>
  <path d="M 367.424 87.103 C 367.424 91.011 366.807 94.679 365.573 98.106 C 364.339 101.465 362.591 104.414 360.329 106.95 C 358.067 109.418 355.325 111.373 352.103 112.812 C 348.881 114.252 345.248 114.972 341.203 114.972 C 337.57 114.972 334.141 114.32 330.92 113.018 C 327.766 111.646 324.99 109.796 322.59 107.466 C 320.259 105.135 318.408 102.393 317.037 99.239 C 315.665 96.017 314.98 92.589 314.98 88.955 C 314.98 85.458 315.665 82.134 317.037 78.98 C 318.408 75.827 320.259 73.051 322.59 70.651 C 324.921 68.251 327.663 66.366 330.816 64.995 C 333.97 63.555 337.295 62.835 340.791 62.835 C 341.614 62.835 342.437 62.869 343.259 62.938 C 344.082 63.007 344.905 63.109 345.727 63.247 L 345.727 83.813 C 344.356 82.647 342.814 82.065 341.1 82.065 C 339.112 82.065 337.432 82.785 336.062 84.223 C 334.69 85.663 334.004 87.377 334.004 89.365 C 334.004 91.422 334.758 93.136 336.266 94.507 C 337.774 95.808 339.523 96.461 341.511 96.461 C 342.951 96.461 344.117 96.186 345.008 95.637 C 345.967 95.021 346.687 94.232 347.167 93.273 C 347.715 92.313 348.092 91.251 348.297 90.085 C 348.503 88.851 348.607 87.617 348.607 86.383 L 348.606 41.741 L 329.789 60.183 L 329.789 37.131 L 352.369 15 L 363.661 15 L 386.242 37.131 L 386.242 60.185 L 367.425 41.743 L 367.425 87.103 Z" style="fill: rgb(255, 255, 255);"/>
</svg>