<?xml version="1.0" encoding="utf-8"?>
<!-- Generator: Adobe Illustrator 14.0.0, SVG Export Plug-In . SVG Version: 6.00 Build 43363)  -->
<!DOCTYPE svg PUBLIC "-//W3C//DTD SVG 1.1//EN" "http://www.w3.org/Graphics/SVG/1.1/DTD/svg11.dtd">
<svg version="1.1" id="Layer_1" xmlns="http://www.w3.org/2000/svg" xmlns:xlink="http://www.w3.org/1999/xlink" x="0px" y="0px"
	 width="69.988px" height="98.186px" viewBox="-1103.321 1189.308 69.988 98.186"
	 enable-background="new -1103.321 1189.308 69.988 98.186" xml:space="preserve">
<path d="M-1051.814,1260.123c0,3.838-0.606,7.441-1.818,10.807c-1.212,3.299-2.929,6.195-5.15,8.686
	c-2.222,2.424-4.915,4.344-8.079,5.757c-3.165,1.414-6.733,2.121-10.706,2.121c-3.568,0-6.935-0.64-10.099-1.919
	c-3.098-1.347-5.824-3.164-8.181-5.453c-2.289-2.289-4.107-4.982-5.454-8.08c-1.347-3.164-2.02-6.531-2.02-10.1
	c0-3.434,0.673-6.699,2.02-9.797c1.347-3.096,3.165-5.823,5.454-8.18s4.982-4.208,8.079-5.555c3.098-1.414,6.363-2.12,9.797-2.12
	c0.808,0,1.616,0.033,2.424,0.1c0.808,0.068,1.616,0.169,2.424,0.304v20.199c-1.347-1.145-2.861-1.717-4.545-1.717
	c-1.952,0-3.602,0.707-4.948,2.12c-1.347,1.414-2.021,3.097-2.021,5.05c0,2.02,0.741,3.703,2.222,5.05
	c1.481,1.278,3.198,1.919,5.151,1.919c1.414,0,2.559-0.27,3.434-0.809c0.942-0.605,1.649-1.38,2.121-2.322
	c0.538-0.943,0.908-1.986,1.11-3.131c0.202-1.212,0.304-2.424,0.304-3.636l-0.001-43.845l-18.481,18.113v-22.642l22.178-21.736
	h11.09l22.178,21.736v22.642l-18.481-18.113V1260.123z"/>
</svg>
