# Blender v2.83.4 OBJ File: 'hook.blend'
# www.blender.org
mtllib hook.mtl
o Cube
v 0.031250 0.500000 -0.031250
v 0.031250 0.000000 -0.031250
v 0.031250 0.500000 0.031250
v 0.031250 0.000000 0.031250
v -0.031250 0.500000 -0.031250
v -0.031250 0.000000 -0.031250
v -0.031250 0.500000 0.031250
v -0.031250 0.000000 0.031250
vt 0.250000 0.875000
vt 0.250000 1.000000
vt 0.125000 1.000000
vt 0.125000 0.875000
vt 0.125000 0.000000
vt 0.125000 1.000000
vt 0.000000 1.000000
vt 0.000000 0.000000
vt 0.125000 0.000000
vt 0.000000 1.000000
vt 0.000000 0.000000
vt 0.250000 0.750000
vt 0.250000 0.875000
vt 0.125000 0.875000
vt 0.125000 0.750000
vt 0.125000 0.000000
vt 0.125000 1.000000
vt 0.000000 1.000000
vt 0.000000 0.000000
vt 0.125000 0.000000
vt 0.125000 1.000000
vt 0.000000 1.000000
vt 0.000000 0.000000
vn 0.0000 1.0000 0.0000
vn 0.0000 0.0000 1.0000
vn -1.0000 0.0000 0.0000
vn 0.0000 -1.0000 0.0000
vn 1.0000 0.0000 0.0000
vn 0.0000 0.0000 -1.0000
usemtl Material
s off
f 1/1/1 5/2/1 7/3/1 3/4/1
f 4/5/2 3/6/2 7/7/2 8/8/2
f 8/9/3 7/3/3 5/10/3 6/11/3
f 6/12/4 2/13/4 4/14/4 8/15/4
f 2/16/5 1/17/5 3/18/5 4/19/5
f 6/20/6 5/21/6 1/22/6 2/23/6
o Cube.001
v 0.031250 0.500000 -0.031250
v 0.031250 0.323223 -0.208027
v 0.031250 0.279029 -0.163833
v -0.031250 0.500000 -0.031250
v -0.031250 0.323223 -0.208027
v -0.031250 0.279029 -0.163833
v -0.031250 0.419682 -0.039780
v -0.031250 0.411612 -0.031250
v 0.031250 0.411612 -0.031250
vt 0.375000 0.125000
vt 0.250000 0.125000
vt 0.250000 0.000000
vt 0.375000 0.000000
vt 0.250000 0.625000
vt 0.125000 0.500000
vt 0.125000 0.125000
vt 0.625000 0.125000
vt 0.625000 0.500000
vt 0.500000 0.500000
vt 0.500000 0.125000
vt 0.375000 0.625000
vn 0.0000 -0.7071 -0.7071
vn 1.0000 0.0000 0.0000
vn 0.0000 -0.7071 0.7071
vn 0.0000 0.7071 -0.7071
vn -1.0000 0.0000 0.0000
usemtl Material
s off
f 13/24/7 10/25/7 11/26/7 14/27/7
f 10/25/8 9/28/8 17/29/8 11/30/8
f 11/31/9 17/32/9 16/33/9 14/34/9
f 13/24/10 12/35/10 9/28/10 10/25/10
f 14/34/11 16/33/11 12/35/11 13/24/11
o Cube.002_Cube.001
v -0.031250 0.500000 -0.031250
v -0.208027 0.323223 -0.031250
v -0.163833 0.279029 -0.031250
v -0.031250 0.500000 0.031250
v -0.208027 0.323223 0.031250
v -0.163833 0.279029 0.031250
v -0.039780 0.419682 0.031250
v -0.031250 0.411612 0.031250
v -0.031250 0.411612 -0.031250
vt 0.375000 0.125000
vt 0.250000 0.125000
vt 0.250000 0.000000
vt 0.375000 0.000000
vt 0.250000 0.625000
vt 0.125000 0.500000
vt 0.125000 0.125000
vt 0.625000 0.125000
vt 0.625000 0.500000
vt 0.500000 0.500000
vt 0.500000 0.125000
vt 0.375000 0.625000
vn -0.7071 -0.7071 0.0000
vn -0.0000 -0.0000 -1.0000
vn 0.7071 -0.7071 0.0000
vn -0.7071 0.7071 0.0000
vn 0.0000 -0.0000 1.0000
usemtl Material
s off
f 22/36/12 19/37/12 20/38/12 23/39/12
f 19/37/13 18/40/13 26/41/13 20/42/13
f 20/43/14 26/44/14 25/45/14 23/46/14
f 22/36/15 21/47/15 18/40/15 19/37/15
f 23/46/16 25/45/16 21/47/16 22/36/16
o Cube.003_Cube.001
v -0.031250 0.500000 0.031250
v -0.031250 0.323223 0.208027
v -0.031250 0.279029 0.163833
v 0.031250 0.500000 0.031250
v 0.031250 0.323223 0.208027
v 0.031250 0.279029 0.163833
v 0.031250 0.419682 0.039780
v 0.031250 0.411612 0.031250
v -0.031250 0.411612 0.031250
vt 0.375000 0.125000
vt 0.250000 0.125000
vt 0.250000 0.000000
vt 0.375000 0.000000
vt 0.250000 0.625000
vt 0.125000 0.500000
vt 0.125000 0.125000
vt 0.625000 0.125000
vt 0.625000 0.500000
vt 0.500000 0.500000
vt 0.500000 0.125000
vt 0.375000 0.625000
vn 0.0000 -0.7071 0.7071
vn -1.0000 -0.0000 0.0000
vn -0.0000 -0.7071 -0.7071
vn 0.0000 0.7071 0.7071
vn 1.0000 0.0000 -0.0000
usemtl Material
s off
f 31/48/17 28/49/17 29/50/17 32/51/17
f 28/49/18 27/52/18 35/53/18 29/54/18
f 29/55/19 35/56/19 34/57/19 32/58/19
f 31/48/20 30/59/20 27/52/20 28/49/20
f 32/58/21 34/57/21 30/59/21 31/48/21
o Cube.004_Cube.001
v 0.031250 0.500000 0.031250
v 0.208027 0.323223 0.031250
v 0.163833 0.279029 0.031250
v 0.031250 0.500000 -0.031250
v 0.208027 0.323223 -0.031250
v 0.163833 0.279029 -0.031250
v 0.039780 0.419682 -0.031250
v 0.031250 0.411612 -0.031250
v 0.031250 0.411612 0.031250
vt 0.375000 0.125000
vt 0.250000 0.125000
vt 0.250000 0.000000
vt 0.375000 0.000000
vt 0.250000 0.625000
vt 0.125000 0.500000
vt 0.125000 0.125000
vt 0.625000 0.125000
vt 0.625000 0.500000
vt 0.500000 0.500000
vt 0.500000 0.125000
vt 0.375000 0.625000
vn 0.7071 -0.7071 -0.0000
vn 0.0000 0.0000 1.0000
vn -0.7071 -0.7071 0.0000
vn 0.7071 0.7071 -0.0000
vn -0.0000 -0.0000 -1.0000
usemtl Material
s off
f 40/60/22 37/61/22 38/62/22 41/63/22
f 37/61/23 36/64/23 44/65/23 38/66/23
f 38/67/24 44/68/24 43/69/24 41/70/24
f 40/60/25 39/71/25 36/64/25 37/61/25
f 41/70/26 43/69/26 39/71/26 40/60/26
